<svg width="280" height="70" viewBox="0 0 280 70" xmlns="http://www.w3.org/2000/svg">
  <defs>
    <filter id="rough" filterUnits="userSpaceOnUse" x="0" y="0" width="280" height="70">
      <feTurbulence type="fractalNoise" baseFrequency="0.04" numOctaves="5" result="noise"/>
      <feDisplacementMap in="SourceGraphic" in2="noise" scale="1.5" xChannelSelector="R" yChannelSelector="G"/>
    </filter>
  </defs>
  <!-- < opening bracket -->
  <path d="M 32 12 C 28 16, 16 26, 12 35 C 16 44, 28 54, 32 58" 
        stroke="#3b82f6" stroke-width="3.5" fill="none" stroke-linecap="round" filter="url(#rough)"/>
  
  <!-- B made of carets (in blue) -->
  <path d="M 50 14 C 49 28, 51 44, 50 58" 
        stroke="#3b82f6" stroke-width="2.5" fill="none" stroke-linecap="round" filter="url(#rough)"/>
  <path d="M 50 16 L 70 26 L 50 36" 
        stroke="#3b82f6" stroke-width="2.5" fill="none" stroke-linecap="round" stroke-linejoin="round" filter="url(#rough)"/>
  <path d="M 50 36 L 74 47 L 50 58" 
        stroke="#3b82f6" stroke-width="2.5" fill="none" stroke-linecap="round" stroke-linejoin="round" filter="url(#rough)"/>
  
  <!-- a -->
  <path d="M 90 40 C 86 36, 86 50, 94 52 C 102 54, 106 46, 104 40 C 102 34, 92 34, 90 40 M 106 36 C 105 42, 107 48, 106 54" 
        stroke="#ededef" stroke-width="2.5" fill="none" stroke-linecap="round" filter="url(#rough)"/>
  <!-- l -->
  <path d="M 118 20 C 117 32, 119 46, 118 54" 
        stroke="#ededef" stroke-width="2.5" fill="none" stroke-linecap="round" filter="url(#rough)"/>
  <!-- i -->
  <path d="M 132 38 C 131 44, 133 50, 132 54 M 132 28 C 132 29, 132 29, 132 30" 
        stroke="#ededef" stroke-width="2.5" fill="none" stroke-linecap="round" filter="url(#rough)"/>
  <!-- s -->
  <path d="M 152 38 C 146 34, 140 38, 144 44 C 148 48, 154 50, 150 56 C 146 60, 138 56, 140 52" 
        stroke="#ededef" stroke-width="2.5" fill="none" stroke-linecap="round" filter="url(#rough)"/>
  <!-- e -->
  <path d="M 162 46 L 178 44 C 180 38, 174 34, 166 36 C 160 38, 158 48, 164 54 C 172 58, 180 54, 180 50" 
        stroke="#ededef" stroke-width="2.5" fill="none" stroke-linecap="round" filter="url(#rough)"/>
  <!-- s -->
  <path d="M 196 38 C 190 34, 184 38, 188 44 C 192 48, 198 50, 194 56 C 190 60, 182 56, 184 52" 
        stroke="#ededef" stroke-width="2.5" fill="none" stroke-linecap="round" filter="url(#rough)"/>
  
  <!-- / slash -->
  <path d="M 210 58 C 214 46, 220 28, 226 12" 
        stroke="#3b82f6" stroke-width="3.5" fill="none" stroke-linecap="round" filter="url(#rough)"/>
  <!-- > bracket (mirrors the < bracket) -->
  <path d="M 236 12 C 240 16, 252 26, 256 35 C 252 44, 240 54, 236 58" 
        stroke="#3b82f6" stroke-width="3.5" fill="none" stroke-linecap="round" filter="url(#rough)"/>
</svg>
